<svg width="28" height="30" viewBox="0 0 28 30" fill="none" xmlns="http://www.w3.org/2000/svg">
<path d="M15.808 25.48C17.9946 25.48 19.688 25.1733 20.888 24.56C22.088 23.9467 22.688 23.0533 22.688 21.88C22.688 20.84 22.328 19.9467 21.608 19.2C20.888 18.4267 19.9946 17.7733 18.928 17.24C17.8613 16.7067 16.408 16.08 14.568 15.36C14.408 15.3067 14.0213 15.16 13.408 14.92C10.9013 13.9067 8.96797 12.8933 7.60797 11.88C6.27464 10.8667 5.60797 9.56 5.60797 7.96C5.60797 6.17333 6.31464 4.82667 7.72797 3.92C9.1413 3.01333 10.9546 2.56 13.168 2.56C14.7946 2.56 16.288 2.77333 17.648 3.2C19.0346 3.6 20.128 4.16 20.928 4.88C21.7546 5.6 22.168 6.41333 22.168 7.32C21.848 7.48 21.5413 7.56 21.248 7.56C20.928 7.56 20.5946 7.49333 20.248 7.36C19.928 7.2 19.448 6.94667 18.808 6.6C17.768 6.04 16.7946 5.6 15.888 5.28C14.9813 4.93333 13.9146 4.76 12.688 4.76C11.1413 4.76 9.88797 5.02667 8.92797 5.56C7.96797 6.09333 7.48797 6.84 7.48797 7.8C7.48797 8.54667 7.80797 9.22667 8.44797 9.84C9.11464 10.4533 9.9413 11 10.928 11.48C11.9413 11.9333 13.288 12.48 14.968 13.12C17.1013 13.9467 18.8613 14.72 20.248 15.44C21.6346 16.16 22.808 17.08 23.768 18.2C24.7546 19.2933 25.248 20.6 25.248 22.12C25.248 23.9067 24.3946 25.2933 22.688 26.28C20.9813 27.24 18.8613 27.72 16.328 27.72C14.328 27.72 12.3546 27.4267 10.408 26.84C8.4613 26.2533 6.79464 25.3867 5.40797 24.24C4.0213 23.0667 3.1413 21.6667 2.76797 20.04C2.76797 19.32 2.96797 18.7067 3.36797 18.2C3.76797 17.6667 4.2613 17.4 4.84797 17.4C4.84797 19.1333 5.32797 20.6133 6.28797 21.84C7.27464 23.04 8.59464 23.9467 10.248 24.56C11.928 25.1733 13.7813 25.48 15.808 25.48Z" fill="#3166F6"/>
<path d="M14.1719 20.1221C14.4722 19.6495 14.9402 19.0867 15.5759 18.4336C16.2116 17.7806 16.932 17.1057 17.7373 16.4091C16.9298 16.0425 16.1057 15.6896 15.2651 15.3504C14.4361 15.0175 13.7316 14.6998 13.1515 14.3971C11.8744 15.2904 10.7598 16.1514 9.80766 16.9799C8.87435 17.8037 8.01965 18.6401 7.24357 19.4893C6.86359 19.1446 6.60967 18.7627 6.48181 18.3437C6.34681 17.936 6.27809 17.4735 6.27567 16.9563C6.48363 16.8275 6.73546 16.6545 7.03117 16.4372C7.33857 16.2264 7.69927 15.9688 8.11326 15.6647C8.54609 15.3557 9.0358 14.9943 9.58237 14.5808C10.1478 14.1623 10.7961 13.6755 11.5272 13.1203C11.2415 12.7513 11.1237 12.3909 11.1738 12.0391C11.2609 12.0261 11.4181 12.0516 11.6455 12.1155C11.8917 12.1746 12.1847 12.2592 12.5245 12.3695L13.0958 11.9543C13.7275 11.4812 14.2516 11.0781 14.6682 10.745C15.0965 10.4183 15.4884 10.0868 15.844 9.75062C16.2183 9.40956 16.606 9.02271 17.0071 8.59007C17.4198 8.16383 17.9323 7.61779 18.5446 6.95194C18.9785 7.31106 19.2906 7.76271 19.4807 8.30689C19.6826 8.85748 19.7831 9.44356 19.7823 10.0651C19.5912 10.1425 19.3339 10.2746 19.0102 10.4614C18.6866 10.6482 18.3097 10.8816 17.8795 11.1617C17.4681 11.437 17.007 11.7533 16.4961 12.1106C15.9925 12.4567 15.4534 12.8213 14.8789 13.2044C15.6611 13.5116 16.4455 13.8276 17.2323 14.1525C18.0307 14.4837 18.7271 14.7895 19.3215 15.0696C19.9038 14.5998 20.4813 14.15 21.0539 13.7203C21.6453 13.2858 22.1987 12.8987 22.714 12.559C23.2294 12.2193 23.6973 11.9295 24.1178 11.6896C24.5499 11.4561 24.9015 11.2997 25.1725 11.2206C25.2822 11.296 25.4057 11.4243 25.5427 11.6055C25.6986 11.782 25.8437 11.9753 25.9781 12.1855C26.1126 12.3957 26.2223 12.6075 26.3073 12.821C26.3995 13.0233 26.4427 13.191 26.4368 13.3243C26.1047 13.4003 25.7369 13.5326 25.3334 13.7211C24.9298 13.9096 24.4977 14.1432 24.0369 14.4217C23.5878 14.7067 23.1173 15.0254 22.6253 15.3779C22.1334 15.7303 21.6424 16.1061 21.1523 16.5051C21.2575 16.8358 21.2135 17.1531 21.0204 17.457C20.8846 17.6708 20.7126 17.8421 20.5047 17.9709C20.4137 17.8907 20.3157 17.8218 20.2104 17.7641C20.1123 17.6952 20.0084 17.6231 19.8986 17.5478C19.3137 18.0466 18.7499 18.5493 18.2071 19.056C17.6644 19.5628 17.163 20.0542 16.7028 20.5303C16.2543 21.0128 15.852 21.4599 15.4958 21.8716C15.1513 22.2897 14.8825 22.6507 14.6894 22.9545C14.6179 23.0671 14.5607 23.1571 14.5178 23.2246C14.4866 23.2985 14.4625 23.3612 14.4456 23.4126C14.1955 23.2604 14.037 23.1129 13.9701 22.9701C13.8961 22.8385 13.8585 22.7117 13.8572 22.5896C13.8488 22.4788 13.8498 22.3656 13.8602 22.2499C13.8635 22.1455 13.8269 22.042 13.7502 21.9393C13.6898 21.8607 13.6639 21.7403 13.6724 21.578C13.6809 21.4158 13.7118 21.2431 13.7651 21.0599C13.8185 20.8767 13.8835 20.7 13.9602 20.5296C14.037 20.3592 14.1075 20.2234 14.1719 20.1221Z" fill="#0941DC"/>
</svg>
